<svg xmlns="http://www.w3.org/2000/svg" width="588.117" height="563.245" viewBox="0 0 588.117 563.245">
  <g id="Group_253" data-name="Group 253" transform="translate(-161.79 -274.501)">
    <path id="Path_715" data-name="Path 715" d="M253.5,88.869C111.352,88.869,0,69.351,0,44.434S111.352,0,253.5,0s253.5,19.518,253.5,44.434S395.655,88.869,253.5,88.869Zm0-86.59c-136.178,0-251.225,19.3-251.225,42.156S117.326,86.59,253.5,86.59s251.225-19.3,251.225-42.156S389.682,2.279,253.5,2.279Z" transform="translate(211.453 748.877)" fill="#f2f2f2"/>
    <ellipse id="Ellipse_42" data-name="Ellipse 42" cx="73.143" cy="73.143" rx="73.143" ry="73.143" transform="translate(217.177 285.434)" fill="#fff"/>
    <ellipse id="Ellipse_43" data-name="Ellipse 43" cx="73.143" cy="73.143" rx="73.143" ry="73.143" transform="translate(179.889 539.282)" fill="#fff"/>
    <path id="Path_721" data-name="Path 721" d="M420.383,264.747q-1.145-5.913-2.358-11.667a.011.011,0,0,1-.008,0,.011.011,0,0,1,0-.008C407.782,204.521,394,164.712,377.669,132.241l-43.261-14.88,32.608-4.66c-13.182-22.365-27.709-40.686-43.147-55.554l-79.458,9.081,59.975-25.7c-110.22-82.91-254.723-16.315-294.1,4.614C4.888,48,1.47,50.015.376,50.664c-.011,0-.011,0-.023.011-.239.148-.353.216-.353.216L22.354,62.5h.011L419.358,268.712Z" transform="translate(328.054 274.501)" fill="#ff63ff"/>
    <path id="Path_722" data-name="Path 722" d="M481.707,233.255q.769-3.059,1.47-6.13c-1.162-1.7-2.438-3.555-3.828-5.537a.011.011,0,0,1-.011-.011C433.558,156.121,265.756-57.756,72.467,14.843h-.011Q67.089,16.859,61.7,19.172c-.011,0-.011,0-.023.011q-4.9,2.1-9.821,4.466c-1.663.786-3.315,1.606-4.979,2.438-1.447.729-2.883,1.47-4.33,2.233,0,0-8.226,2.062-17.443,9.833C7,53.444-14.944,90.8,14.132,178.031c0,0,25.818,72.269,12.909,105.834-12.909,33.542,67.13,72.257,90.338,0,23.231-72.28,30.99-141.973,30.99-141.973s26.706,56.272,24.074,112.7c-1.082,23.129.98,46.28,7.212,68.554.638,2.336,1.333,4.671,2.028,7.041,8.4,28.2,21.5,64.475,40.8,99.556a335.915,335.915,0,0,0,31.378,47.568A339.575,339.575,0,0,0,298.934,459,345.975,345.975,0,0,0,480.682,237.22Z" transform="translate(266.731 305.993)" fill="#866ce0"/>
    <path id="Path_723" data-name="Path 723" d="M10.325,85.178,0,0,43.88,61.947Z" transform="translate(306.686 274.949)" fill="#866ce0"/>
    <path id="Path_724" data-name="Path 724" d="M10.325,85.178,0,0,43.88,61.947Z" transform="translate(284.187 281.085)" fill="#866ce0"/>
    <path id="Path_725" data-name="Path 725" d="M110.247,143.3,0,0,111.656,100.262Z" transform="translate(161.79 302.333)" fill="#ff63ff"/>
  </g>
</svg>
